<svg width="910" height="236" fill="none" xmlns="http://www.w3.org/2000/svg"><path d="M238.1 178.2V.26h27.65V70.4c8.7-12.97 21.76-19.46 39.17-19.46 14.85 0 26.33 4.4 34.44 13.19 8.1 8.79 12.16 21.03 12.16 36.74v77.32h-27.65v-73.48c0-20.31-9.05-30.47-27.14-30.47-9.05 0-16.48 2.73-22.28 8.2-5.8 5.46-8.7 13.14-8.7 23.04v72.71H238.1Zm244.07-15.36c-12.29 12.29-27.74 18.43-46.34 18.43-18.6 0-34.1-6.14-46.47-18.43-12.38-12.3-18.57-27.9-18.57-46.86 0-18.94 6.2-34.52 18.56-46.72 12.38-12.2 27.87-18.3 46.48-18.3 18.6-.01 34.05 6.09 46.34 18.3 12.29 12.2 18.43 27.78 18.43 46.72 0 18.95-6.14 34.57-18.43 46.86Zm-72.58-15.62c6.56 7.68 15.31 11.53 26.24 11.52 10.93 0 19.68-3.84 26.24-11.52 6.57-7.68 9.86-18.09 9.86-31.23 0-12.97-3.33-23.3-9.98-30.98-6.66-7.69-15.37-11.53-26.12-11.53-10.93 0-19.67 3.8-26.24 11.4-6.57 7.6-9.86 17.96-9.86 31.1 0 13.15 3.28 23.56 9.86 31.24Zm155.02 34.05c-25.43 0-38.15-13.65-38.15-40.96v-63h-19.2v-23.3h19.97l6.4-36.6h20.74V54h49.42v23.3h-49.42v62.22c0 11.44 4.18 17.16 12.55 17.16 7.85 0 14.93-7.17 21.25-21.5l21.5 11c-10.58 23.4-25.6 35.09-45.06 35.08Z" fill="#fff"/><path d="M618.56 235.04c-12.3 0-22.45-3.41-30.47-10.24l10.24-21.76c4.95 5.8 10.33 8.7 16.13 8.7 7.68 0 11.52-4.95 11.52-14.85V54.02h27.65V197.4c0 13.32-3.28 22.92-9.85 28.8-6.57 5.9-14.98 8.84-25.22 8.84ZM639.8 33.03c-4.55.15-8.97-1.5-12.3-4.61a15.52 15.52 0 0 1-4.86-11.78 15.93 15.93 0 0 1 4.87-11.9 18.15 18.15 0 0 1 24.45 0 15.72 15.72 0 0 1 5 11.9 15.43 15.43 0 0 1-5 11.65 17 17 0 0 1-12.16 4.74Zm82.5 148.24c-14.17 0-25.65-3.54-34.43-10.62-8.8-7.09-13.19-16.6-13.2-28.55 0-10.92 4.58-20.18 13.71-27.78 9.13-7.6 20.61-11.4 34.44-11.4 14.16 0 26.11 4.53 35.84 13.58v-15.11c0-8.87-2.26-15.74-6.78-20.61-4.53-4.87-10.97-7.3-19.33-7.3-16.9 0-27.4 8.62-31.5 25.86l-25.34-5.38c3.4-13.31 10.15-23.8 20.22-31.49 10.08-7.68 22.62-11.52 37.64-11.52 16.39 0 29.32 4.3 38.79 12.93 9.47 8.62 14.2 21.2 14.2 37.76v76.56h-26.88v-15.62c-9.05 12.46-21.5 18.7-37.38 18.7Zm5.12-20.48c12.3 0 22.7-6.14 31.24-18.43v-3.85c-8.53-10.24-18.95-15.36-31.24-15.36-7.17 0-12.97 1.75-17.4 5.25a16.38 16.38 0 0 0-6.67 13.44 16.73 16.73 0 0 0 6.53 13.7c4.36 3.5 10.2 5.25 17.54 5.25Zm86.06 17.41V54.02h26.88v21.5c6.82-15.7 18.6-23.55 35.33-23.55 9.9 0 18.09 3.24 24.58 9.73 6.5 6.49 9.73 15.2 9.73 26.11a60.74 60.74 0 0 1-3.33 19.2l-25.35-2.55c.52-3.4.87-6.81 1.03-10.24 0-12.8-5.3-19.2-15.88-19.2-7.17 0-13.18 3.8-18.05 11.39-4.86 7.6-7.3 17.62-7.3 30.08v61.7l-27.64.01ZM65.42 73.02C86.02 61.58 114.24 45.9 114.24.26H80.08c0 25.53-12.44 32.44-31.25 42.9C28.23 54.6 0 70.27 0 115.91h34.17c0-25.54 12.43-32.44 31.25-42.9Zm59.14-10.48c0 25.53-12.43 32.44-31.25 42.9-20.6 11.44-48.83 27.12-48.83 72.76h34.17c0-25.53 12.44-32.44 31.25-42.9 20.6-11.44 48.83-27.12 48.83-72.76h-34.17Z" fill="#fff"/></svg>