<svg width="30" height="30" viewBox="0 0 30 30" fill="none" xmlns="http://www.w3.org/2000/svg">
    <rect width="30" height="30" rx="3" fill="#FFC738"/>
    <path d="M7.75781 21.1523C7.94429 21.1523 8.12314 21.0783 8.255 20.9464C8.38686 20.8145 8.46094 20.6357 8.46094 20.4492C8.46094 20.2627 8.38686 20.0839 8.255 19.952C8.12314 19.8202 7.94429 19.7461 7.75781 19.7461C7.66457 19.7461 7.57515 19.7091 7.50922 19.6431C7.44329 19.5772 7.40625 19.4878 7.40625 19.3945V7.75781C7.40625 7.66457 7.44329 7.57515 7.50922 7.50922C7.57515 7.44329 7.66457 7.40625 7.75781 7.40625H19.3945C19.4878 7.40625 19.5772 7.44329 19.6431 7.50922C19.7091 7.57515 19.7461 7.66457 19.7461 7.75781C19.7461 7.94429 19.8202 8.12314 19.952 8.255C20.0839 8.38686 20.2627 8.46094 20.4492 8.46094C20.6357 8.46094 20.8145 8.38686 20.9464 8.255C21.0783 8.12314 21.1523 7.94429 21.1523 7.75781C21.1523 7.29161 20.9671 6.84451 20.6375 6.51485C20.3078 6.1852 19.8607 6 19.3945 6H7.75781C7.29161 6 6.84451 6.1852 6.51485 6.51485C6.1852 6.84451 6 7.29161 6 7.75781V19.3945C6 19.6254 6.04547 19.8539 6.13381 20.0672C6.22214 20.2805 6.35162 20.4743 6.51485 20.6375C6.67808 20.8007 6.87186 20.9302 7.08513 21.0185C7.29839 21.1069 7.52697 21.1523 7.75781 21.1523Z" fill="white"/>
    <path d="M10.6055 24H22.2422C22.7084 24 23.1555 23.8148 23.4851 23.4851C23.8148 23.1555 24 22.7084 24 22.2422V10.6055C24 10.1393 23.8148 9.69216 23.4851 9.36251C23.1555 9.03285 22.7084 8.84766 22.2422 8.84766H10.6055C10.3746 8.84766 10.1461 8.89312 9.93278 8.98146C9.71951 9.0698 9.52573 9.19928 9.36251 9.36251C9.19928 9.52574 9.0698 9.71952 8.98146 9.93278C8.89312 10.1461 8.84766 10.3746 8.84766 10.6055V22.2422C8.84766 22.473 8.89312 22.7016 8.98146 22.9149C9.0698 23.1281 9.19928 23.3219 9.36251 23.4851C9.52573 23.6484 9.71951 23.7779 9.93278 23.8662C10.1461 23.9545 10.3746 24 10.6055 24ZM22.2422 10.2539C22.3354 10.2539 22.4248 10.2909 22.4908 10.3569C22.5567 10.4228 22.5938 10.5122 22.5938 10.6055V22.2422C22.5938 22.3354 22.5567 22.4248 22.4908 22.4908C22.4248 22.5567 22.3354 22.5938 22.2422 22.5938H10.6055C10.5122 22.5938 10.4228 22.5567 10.3569 22.4908C10.2909 22.4248 10.2539 22.3354 10.2539 22.2422V10.6055C10.2539 10.5122 10.2909 10.4228 10.3569 10.3569C10.4228 10.2909 10.5122 10.2539 10.6055 10.2539H22.2422Z" fill="white"/>
    <path d="M16.4238 20.1855C16.6103 20.1855 16.7892 20.1115 16.921 19.9796C17.0529 19.8477 17.127 19.6689 17.127 19.4824V13.3652C17.127 13.1788 17.0529 12.9999 16.921 12.868C16.7892 12.7362 16.6103 12.6621 16.4238 12.6621C16.2373 12.6621 16.0585 12.7362 15.9266 12.868C15.7948 12.9999 15.7207 13.1788 15.7207 13.3652V19.4824C15.7207 19.6689 15.7948 19.8477 15.9266 19.9796C16.0585 20.1115 16.2373 20.1855 16.4238 20.1855Z" fill="white"/>
    <path d="M13.3652 17.127H19.4824C19.6689 17.127 19.8477 17.0529 19.9796 16.921C20.1115 16.7892 20.1855 16.6103 20.1855 16.4238C20.1855 16.2373 20.1115 16.0585 19.9796 15.9266C19.8477 15.7948 19.6689 15.7207 19.4824 15.7207H13.3652C13.1788 15.7207 12.9999 15.7948 12.868 15.9266C12.7362 16.0585 12.6621 16.2373 12.6621 16.4238C12.6621 16.6103 12.7362 16.7892 12.868 16.921C12.9999 17.0529 13.1788 17.127 13.3652 17.127Z" fill="white"/>
</svg>
